# xmcd CD database file
#
# Track frame offsets:
#	150
#	11309
#	21458
#	34272
#	46169
#	55730
#	66894
#	79425
#	89692
#	100437
#	110933
#	120920
#	131944
#	140235
#	152341
#	164510
#	176807
#	188171
#	200698
#	210787
#	222386
#	230802
#	241164
#	252241
#	260958
#	271874
#	280930
#	290441
#	300810
#	312819
#
# Disc length: 4293 seconds
#
# Revision: 0
# Processed by: cddbd v1.5.1PL0 Copyright (c) Steve Scherf et al.
# Submitted via: CDex 1.50beta9
#
DISCID=c310c31e
DTITLE=Johnny Cash - Sun Years
DYEAR=1900
DGENRE=Country
TTITLE0=1955 Cry Cry Cry
TTITLE1=1955 Hey Porter
TTITLE2=1955 Folsom Prison Blues
TTITLE3=1955 So Doggone Lonesome
TTITLE4=1955 New Mexico
TTITLE5=1955 Wide Open Road
TTITLE6=1956 I Walk The Line
TTITLE7=1956 Get Rhythm
TTITLE8=1956 Train Of Love
TTITLE9=1956 There You Go
TTITLE10=1957 Rock Island Line
TTITLE11=1957 I Heard That Lonesome Whistle Blow
TTITLE12=1957 Wreck Of The Old '97
TTITLE13=1957 Home Of The Blues
TTITLE14=1957 Goodnight Irene
TTITLE15=1957 Give My Love To Rose
TTITLE16=1957 Don't Make Me Go
TTITLE17=1957 Next In Line
TTITLE18=1957 Ballad Of A Teenage Queen
TTITLE19=1958 Big River
TTITLE20=1958 Guess Things Happen That Way
TTITLE21=1958 The Ways Of A Woman In Love
TTITLE22=1958 Fool's Hall Of Fame
TTITLE23=1959 I Forgot To Remember To Forget
TTITLE24=1959 I Just Thought You'd Like To Know
TTITLE25=1959 Katy Too
TTITLE26=1959 Luther Played The Boogie
TTITLE27=1959 Straight A's In Love
TTITLE28=1959 Thanks A Lot
TTITLE29=1960 I Couldn't Keep From Crying
EXTD=
EXTT0=
EXTT1=
EXTT2=
EXTT3=
EXTT4=
EXTT5=
EXTT6=
EXTT7=
EXTT8=
EXTT9=
EXTT10=
EXTT11=
EXTT12=
EXTT13=
EXTT14=
EXTT15=
EXTT16=
EXTT17=
EXTT18=
EXTT19=
EXTT20=
EXTT21=
EXTT22=
EXTT23=
EXTT24=
EXTT25=
EXTT26=
EXTT27=
EXTT28=
EXTT29=
PLAYORDER=
